<svg xmlns="http://www.w3.org/2000/svg" xmlns:xlink="http://www.w3.org/1999/xlink" contentStyleType="text/css" height="1616px" preserveAspectRatio="none" style="width:751px;height:1616px;background:#FFFFFF;" version="1.1" viewBox="0 0 751 1616" width="751px" zoomAndPan="magnify"><defs/><g><!--cluster Tienda de Ropa ITI-523--><g id="cluster_Tienda de Ropa ITI-523"><rect fill="none" height="1499" rx="2.5" ry="2.5" style="stroke:#181818;stroke-width:1.0;" width="294" x="153.5" y="111.5"/><text fill="#000000" font-family="sans-serif" font-size="14" font-weight="bold" lengthAdjust="spacing" textLength="159.5959" x="220.702" y="128.4659">Tienda de Ropa ITI-523</text></g><!--entity Cliente--><g id="elem_Cliente"><ellipse cx="33.5" cy="842" fill="#F1F1F1" rx="16" ry="16" style="stroke:#181818;stroke-width:0.5;"/><path d="M33.5,862 C37.5,862 40.5,862 44.5,858 C52.5,858 60.5,866 60.5,874 L60.5,878 C60.5,882 56.5,886 52.5,886 L14.5,886 C10.5,886 6.5,882 6.5,878 L6.5,874 C6.5,866 14.5,858 22.5,858 C26.5,862 29.5,862 33.5,862 " fill="#F1F1F1" style="stroke:#181818;stroke-width:0.5;"/><text fill="#000000" font-family="sans-serif" font-size="14" lengthAdjust="spacing" textLength="45.5698" x="10.7151" y="901.4659">Cliente</text></g><!--entity Pasarela--><g id="elem_Pasarela"><ellipse cx="612.6788" cy="1256.5" fill="#F1F1F1" rx="16" ry="16" style="stroke:#181818;stroke-width:0.5;"/><path d="M612.6788,1276.5 C616.6788,1276.5 619.6788,1276.5 623.6788,1272.5 C631.6788,1272.5 639.6788,1280.5 639.6788,1288.5 L639.6788,1292.5 C639.6788,1296.5 635.6788,1300.5 631.6788,1300.5 L593.6788,1300.5 C589.6788,1300.5 585.6788,1296.5 585.6788,1292.5 L585.6788,1288.5 C585.6788,1280.5 593.6788,1272.5 601.6788,1272.5 C605.6788,1276.5 608.6788,1276.5 612.6788,1276.5 " fill="#F1F1F1" style="stroke:#181818;stroke-width:0.5;"/><text fill="#000000" font-family="sans-serif" font-size="14" lengthAdjust="spacing" textLength="113.3576" x="556" y="1315.9659">Pasarela de pago</text><text fill="#000000" font-family="sans-serif" font-size="14" lengthAdjust="spacing" textLength="68.3897" x="556" y="1335.0339">(simulada)</text></g><g id="elem_GMN52"><path d="M158,4 L158,72.6987 L192.3623,642.2336 L158,80.6987 L158,102.5301 A0,0 0 0 0 158,102.5301 L443.4072,102.5301 A0,0 0 0 0 443.4072,102.5301 L443.4072,14 L433.4072,4 L158,4 A0,0 0 0 0 158,4 " fill="#FEFFDD" style="stroke:#181818;stroke-width:0.5;"/><path d="M433.4072,4 L433.4072,14 L443.4072,14 L433.4072,4 " fill="#FEFFDD" style="stroke:#181818;stroke-width:0.5;"/><text fill="#000000" font-family="sans-serif" font-size="13" lengthAdjust="spacing" textLength="236.8602" x="164" y="22.897">Las rutas de carrito, checkout, ordenes</text><text fill="#000000" font-family="sans-serif" font-size="13" lengthAdjust="spacing" textLength="264.4072" x="164" y="40.603">y reportes estan bajo el middleware "auth":</text><text fill="#000000" font-family="sans-serif" font-size="13" lengthAdjust="spacing" textLength="207.9612" x="164" y="58.309">si el usuario no ha iniciado sesion,</text><text fill="#000000" font-family="sans-serif" font-size="13" lengthAdjust="spacing" textLength="207.5972" x="164" y="76.0151">Laravel lo redirige a /login y luego</text><text fill="#000000" font-family="sans-serif" font-size="13" lengthAdjust="spacing" textLength="170.5602" x="164" y="93.7211">continua el flujo de compra.</text></g><g id="elem_GMN55"><path d="M480,1357.5 L480,1407.3484 L375.7527,1400.9253 L480,1415.3484 L480,1491.4421 A0,0 0 0 0 480,1491.4421 L744.6982,1491.4421 A0,0 0 0 0 744.6982,1491.4421 L744.6982,1367.5 L734.6982,1357.5 L480,1357.5 A0,0 0 0 0 480,1357.5 " fill="#FEFFDD" style="stroke:#181818;stroke-width:0.5;"/><path d="M734.6982,1357.5 L734.6982,1367.5 L744.6982,1367.5 L734.6982,1357.5 " fill="#FEFFDD" style="stroke:#181818;stroke-width:0.5;"/><text fill="#000000" font-family="sans-serif" font-size="13" lengthAdjust="spacing" textLength="197.1452" x="486" y="1376.397">OrderController::procesarPago()</text><text fill="#000000" font-family="sans-serif" font-size="13" lengthAdjust="spacing" textLength="243.6982" x="486" y="1394.103">ejecuta todo dentro de una transaccion:</text><text fill="#000000" font-family="sans-serif" font-size="13" lengthAdjust="spacing" textLength="233.3892" x="486" y="1411.809">valida stock -&gt; crea la orden en estado</text><text fill="#000000" font-family="sans-serif" font-size="13" lengthAdjust="spacing" textLength="211.9002" x="486" y="1429.5151">"pagado" -&gt; crea los OrderItems -&gt;</text><text fill="#000000" font-family="sans-serif" font-size="13" lengthAdjust="spacing" textLength="235.9892" x="486" y="1447.2211">descuenta stock -&gt; registra el Payment</text><text fill="#000000" font-family="sans-serif" font-size="13" lengthAdjust="spacing" textLength="194.5971" x="486" y="1464.9271">-&gt; vacia el carrito -&gt; redirige a la</text><text fill="#000000" font-family="sans-serif" font-size="13" lengthAdjust="spacing" textLength="83.7591" x="486" y="1482.6331">confirmacion.</text></g><g id="elem_UC_CATALOGO"><ellipse cx="300.4763" cy="158.5393" fill="#F1F1F1" rx="72.4763" ry="17.0393" style="stroke:#181818;stroke-width:0.5;"/><text fill="#000000" font-family="sans-serif" font-size="14" lengthAdjust="spacing" textLength="82.3617" x="256.2954" y="163.2722">Ver catalogo</text></g><g id="elem_UC_DETALLE"><ellipse cx="300.2852" cy="418.357" fill="#F1F1F1" rx="99.7852" ry="22.357" style="stroke:#181818;stroke-width:0.5;"/><text fill="#000000" font-family="sans-serif" font-size="14" lengthAdjust="spacing" textLength="154.4054" x="220.0825" y="423.09">Ver detalle de producto</text></g><g id="elem_UC_FILTRAR"><ellipse cx="300.3473" cy="255.3695" fill="#F1F1F1" rx="104.8473" ry="23.3695" style="stroke:#181818;stroke-width:0.5;"/><text fill="#000000" font-family="sans-serif" font-size="14" lengthAdjust="spacing" textLength="166.4874" x="214.1036" y="260.1024">Filtrar / buscar productos</text></g><g id="elem_UC_VISTOS"><ellipse cx="300.258" cy="327.7135" fill="#F1F1F1" rx="129.758" ry="30.2135" style="stroke:#181818;stroke-width:0.5;"/><text fill="#000000" font-family="sans-serif" font-size="14" lengthAdjust="spacing" textLength="158.6054" x="216.1983" y="322.9125">Registrar producto visto</text><text fill="#000000" font-family="sans-serif" font-size="14" lengthAdjust="spacing" textLength="165.6334" x="212.6844" y="341.9804">(cookie productos_vistos)</text></g><g id="elem_UC_LOGIN"><ellipse cx="300.4415" cy="662.4883" fill="#F1F1F1" rx="107.9415" ry="23.9883" style="stroke:#181818;stroke-width:0.5;"/><text fill="#000000" font-family="sans-serif" font-size="14" lengthAdjust="spacing" textLength="173.7533" x="210.5648" y="667.2213">Iniciar sesion / Registrarse</text></g><g id="elem_UC_AGREGAR"><ellipse cx="300.3968" cy="562.2794" fill="#F1F1F1" rx="84.3968" ry="19.2794" style="stroke:#181818;stroke-width:0.5;"/><text fill="#000000" font-family="sans-serif" font-size="14" lengthAdjust="spacing" textLength="115.4996" x="239.647" y="567.0123">Agregar al carrito</text></g><g id="elem_UC_VERCARRITO"><ellipse cx="300.3629" cy="798.4758" fill="#F1F1F1" rx="62.3629" ry="16.9758" style="stroke:#181818;stroke-width:0.5;"/><text fill="#000000" font-family="sans-serif" font-size="14" lengthAdjust="spacing" textLength="68.9917" x="262.867" y="803.2088">Ver carrito</text></g><g id="elem_UC_ACTUALIZAR"><ellipse cx="300.6056" cy="874.5211" fill="#F1F1F1" rx="88.1056" ry="20.0211" style="stroke:#181818;stroke-width:0.5;"/><text fill="#000000" font-family="sans-serif" font-size="14" lengthAdjust="spacing" textLength="125.2715" x="234.9698" y="879.2541">Actualizar cantidad</text></g><g id="elem_UC_ELIMINAR"><ellipse cx="300.3989" cy="938.2798" fill="#F1F1F1" rx="114.3989" ry="25.2798" style="stroke:#181818;stroke-width:0.5;"/><text fill="#000000" font-family="sans-serif" font-size="14" lengthAdjust="spacing" textLength="188.6773" x="203.0603" y="943.0127">Eliminar producto del carrito</text></g><g id="elem_UC_STOCK"><ellipse cx="300.3719" cy="481.4744" fill="#F1F1F1" rx="100.3719" ry="22.4744" style="stroke:#181818;stroke-width:0.5;"/><text fill="#000000" font-family="sans-serif" font-size="14" lengthAdjust="spacing" textLength="155.8194" x="219.4622" y="486.2073">Validar stock disponible</text></g><g id="elem_UC_SUBTOTAL"><ellipse cx="300.5799" cy="723.416" fill="#F1F1F1" rx="82.5799" ry="18.916" style="stroke:#181818;stroke-width:0.5;"/><text fill="#000000" font-family="sans-serif" font-size="14" lengthAdjust="spacing" textLength="110.5856" x="242.2871" y="728.1489">Calcular subtotal</text></g><g id="elem_UC_CHECKOUT"><ellipse cx="300.3995" cy="1098.4322" fill="#F1F1F1" rx="56.8995" ry="16.9322" style="stroke:#181818;stroke-width:0.5;"/><text fill="#000000" font-family="sans-serif" font-size="14" lengthAdjust="spacing" textLength="61.7677" x="266.5156" y="1103.1652">Checkout</text></g><g id="elem_UC_TOTALES"><ellipse cx="300.5494" cy="1012.7099" fill="#F1F1F1" rx="139.0494" ry="30.2099" style="stroke:#181818;stroke-width:0.5;"/><text fill="#000000" font-family="sans-serif" font-size="14" lengthAdjust="spacing" textLength="101.2196" x="249.9396" y="1006.6079">Calcular totales</text><text fill="#000000" font-family="sans-serif" font-size="14" lengthAdjust="spacing" textLength="182.1113" x="209.4937" y="1025.6758">(subtotal + IVA 13% + envio)</text></g><g id="elem_UC_PAGO"><ellipse cx="300.5766" cy="1393.4153" fill="#F1F1F1" rx="75.0766" ry="17.4153" style="stroke:#181818;stroke-width:0.5;"/><text fill="#000000" font-family="sans-serif" font-size="14" lengthAdjust="spacing" textLength="89.0817" x="253.0358" y="1398.1483">Realizar pago</text></g><g id="elem_UC_CREARORDEN"><ellipse cx="300.7338" cy="1154.4468" fill="#F1F1F1" rx="90.2338" ry="20.4468" style="stroke:#181818;stroke-width:0.5;"/><text fill="#000000" font-family="sans-serif" font-size="14" lengthAdjust="spacing" textLength="130.7455" x="232.3611" y="1159.1797">Crear orden e items</text></g><g id="elem_UC_DESCONTAR"><ellipse cx="300.7077" cy="1211.5415" fill="#F1F1F1" rx="80.7077" ry="18.5415" style="stroke:#181818;stroke-width:0.5;"/><text fill="#000000" font-family="sans-serif" font-size="14" lengthAdjust="spacing" textLength="105.4196" x="244.9979" y="1216.2745">Descontar stock</text></g><g id="elem_UC_REGPAGO"><ellipse cx="300.3119" cy="1319.4624" fill="#F1F1F1" rx="77.8119" ry="17.9624" style="stroke:#181818;stroke-width:0.5;"/><text fill="#000000" font-family="sans-serif" font-size="14" lengthAdjust="spacing" textLength="97.1877" x="248.7181" y="1324.1954">Registrar pago</text></g><g id="elem_UC_VACIAR"><ellipse cx="300.4386" cy="1265.2877" fill="#F1F1F1" rx="74.4386" ry="17.2877" style="stroke:#181818;stroke-width:0.5;"/><text fill="#000000" font-family="sans-serif" font-size="14" lengthAdjust="spacing" textLength="87.1357" x="253.8707" y="1270.0207">Vaciar carrito</text></g><g id="elem_UC_CONFIRMACION"><ellipse cx="300.6317" cy="1453.6263" fill="#F1F1F1" rx="108.6317" ry="24.1263" style="stroke:#181818;stroke-width:0.5;"/><text fill="#000000" font-family="sans-serif" font-size="14" lengthAdjust="spacing" textLength="175.3633" x="209.9501" y="1458.3593">Ver confirmacion de orden</text></g><g id="elem_UC_HISTORIAL"><ellipse cx="300.3086" cy="1518.5617" fill="#F1F1F1" rx="100.8086" ry="22.5617" style="stroke:#181818;stroke-width:0.5;"/><text fill="#000000" font-family="sans-serif" font-size="14" lengthAdjust="spacing" textLength="156.8694" x="218.8739" y="1523.2947">Ver historial de ordenes</text></g><g id="elem_UC_REPORTES"><ellipse cx="300.3113" cy="1580.4623" fill="#F1F1F1" rx="95.3113" ry="21.4623" style="stroke:#181818;stroke-width:0.5;"/><text fill="#000000" font-family="sans-serif" font-size="14" lengthAdjust="spacing" textLength="143.4855" x="225.5686" y="1585.1952">Generar reportes PDF</text></g><polygon fill="#181818" points="235.2321,175.5536,225.4244,174.6537,230.4966,177.1583,227.992,182.2305,235.2321,175.5536" style="stroke:#181818;stroke-width:1.0;"/><path d="M35.8783,825.399 C40.3361,702.625 55.4535,337.2983 79,289.5 C109.0077,228.5857 175.8286,195.6838 229.5495,177.4792 " fill="none" style="stroke:#181818;stroke-width:1.0;"/><polygon fill="#181818" points="200.228,398.2132,193.5225,390.9995,195.6299,396.2492,190.3802,398.3565,200.228,398.2132" style="stroke:#181818;stroke-width:1.0;"/><path d="M34.6524,825.4601 C35.5278,703.9031 41.3096,345.2894 79,310.5 C98.9218,292.1116 118.7013,293.7257 140,310.5 C160.113,326.3405 136.3773,347.4666 153.5,366.5 C166.0968,380.5026 177.2031,388.3786 194.7102,395.8564 " fill="none" style="stroke:#181818;stroke-width:1.0;"/><polygon fill="#181818" points="213.0596,638.4693,206.5664,631.0639,208.5204,636.3726,203.2118,638.3266,213.0596,638.4693" style="stroke:#181818;stroke-width:1.0;"/><path d="M34.9375,825.2469 C36.6057,709.8777 44.3676,384.2583 79,352.5 C98.9816,334.1766 120.2964,333.878 140,352.5 C159.3306,370.7695 138.7618,569.3588 153.5,591.5 C167.6342,612.7338 184.5742,625.3118 207.6126,635.9533 " fill="none" style="stroke:#181818;stroke-width:1.0;"/><polygon fill="#181818" points="215.8589,552.0828,208.3909,545.6617,211.0704,550.6437,206.0884,553.3232,215.8589,552.0828" style="stroke:#181818;stroke-width:1.0;"/><path d="M34.7896,825.3025 C36.0578,706.7564 42.8451,364.7673 79,331.5 C98.9506,313.1428 120.1332,313.0522 140,331.5 C169.7188,359.0961 128.6182,481.4743 153.5,513.5 C168.7554,533.1354 186.4487,543.2442 210.1127,550.3559 " fill="none" style="stroke:#181818;stroke-width:1.0;"/><polygon fill="#181818" points="237.8508,794.7117,229.6742,789.2213,232.9255,793.8505,228.2963,797.1017,237.8508,794.7117" style="stroke:#181818;stroke-width:1.0;"/><path d="M35.0962,825.2972 C37.1712,713.2653 45.8769,403.7624 79,373.5 C99.0153,355.2134 120.4904,354.6748 140,373.5 C170.2431,402.6823 128.1488,717.9804 153.5,751.5 C173.1766,777.5167 201.5425,788.3631 231.9404,793.6782 " fill="none" style="stroke:#181818;stroke-width:1.0;"/><polygon fill="#181818" points="243.2369,1093.439,234.1714,1089.5896,238.2376,1093.5224,234.3048,1097.5885,243.2369,1093.439" style="stroke:#181818;stroke-width:1.0;"/><path d="M35.0962,905.7028 C37.1712,1017.7347 45.8769,1327.2376 79,1357.5 C99.0153,1375.7866 120.2806,1376.1053 140,1357.5 C177.5626,1322.0596 119.3302,1164.2221 153.5,1125.5 C175.4164,1100.6638 206.1173,1094.0581 237.2377,1093.5391 " fill="none" style="stroke:#181818;stroke-width:1.0;"/><polygon fill="#181818" points="225.2664,1409.0842,215.8744,1406.1193,220.298,1409.6452,216.772,1414.0688,225.2664,1409.0842" style="stroke:#181818;stroke-width:1.0;"/><path d="M35.1024,905.7093 C37.2137,1020.1606 46.0493,1341.5905 79,1374.5 C116.3131,1411.7665 171.0347,1415.208 219.3043,1409.7574 " fill="none" style="stroke:#181818;stroke-width:1.0;"/><polygon fill="#181818" points="191.7388,1457.9497,183.1948,1453.0506,186.765,1457.4386,182.377,1461.0087,191.7388,1457.9497" style="stroke:#181818;stroke-width:1.0;"/><path d="M35.0452,905.7069 C37.0393,1025.1808 45.6719,1372.0878 79,1409.5 C107.043,1440.9795 144.7004,1453.1158 185.7702,1457.3364 " fill="none" style="stroke:#181818;stroke-width:1.0;"/><polygon fill="#181818" points="199.2806,1514.527,191.0669,1509.0925,194.3496,1513.6994,189.7426,1516.9821,199.2806,1514.527" style="stroke:#181818;stroke-width:1.0;"/><path d="M35.2591,905.6767 C37.9313,1030.4628 48.4513,1405.683 79,1450.5 C105.5682,1489.4773 148.4284,1505.9917 193.3634,1513.5339 " fill="none" style="stroke:#181818;stroke-width:1.0;"/><polygon fill="#181818" points="204.9965,1573.2684,196.9247,1567.6251,200.0883,1572.3147,195.3988,1575.4783,204.9965,1573.2684" style="stroke:#181818;stroke-width:1.0;"/><path d="M35.3,905.5747 C38.1949,1036.7909 49.5505,1448.0999 79,1499.5 C104.2921,1543.6439 151.4057,1562.855 199.1067,1572.1239 " fill="none" style="stroke:#181818;stroke-width:1.0;"/><polygon fill="#181818" points="555.8385,1294.8866,546.495,1291.7721,550.8617,1295.3682,547.2656,1299.7349,555.8385,1294.8866" style="stroke:#181818;stroke-width:1.0;"/><path d="M378.5275,1312.0457 C433.5779,1306.7183 500.3997,1300.2516 549.8664,1295.4645 " fill="none" style="stroke:#181818;stroke-width:1.0;"/><polygon fill="#181818" points="300.5,357.6832,296.5,366.6832,300.5,362.6832,304.5,366.6832,300.5,357.6832" style="stroke:#181818;stroke-width:1.0;"/><path d="M300.5,395.5369 C300.5,384.0586 300.5,376.0205 300.5,363.6832 " fill="none" style="stroke:#181818;stroke-width:1.0;stroke-dasharray:7.0,7.0;"/><text fill="#000000" font-family="sans-serif" font-size="13" lengthAdjust="spacing" textLength="57.5771" x="258.5" y="382.147">&#171;include&#187;</text><polygon fill="#181818" points="300.5,504.0798,296.5,513.0798,300.5,509.0798,304.5,513.0798,300.5,504.0798" style="stroke:#181818;stroke-width:1.0;"/><path d="M300.5,542.8922 C300.5,531.187 300.5,522.2756 300.5,510.0798 " fill="none" style="stroke:#181818;stroke-width:1.0;stroke-dasharray:7.0,7.0;"/><text fill="#000000" font-family="sans-serif" font-size="13" lengthAdjust="spacing" textLength="57.5771" x="258.5" y="528.897">&#171;include&#187;</text><polygon fill="#181818" points="300.5,742.5621,296.5,751.5621,300.5,747.5621,304.5,751.5621,300.5,742.5621" style="stroke:#181818;stroke-width:1.0;"/><path d="M300.5,781.4813 C300.5,769.8986 300.5,760.5555 300.5,748.5621 " fill="none" style="stroke:#181818;stroke-width:1.0;stroke-dasharray:7.0,7.0;"/><text fill="#000000" font-family="sans-serif" font-size="13" lengthAdjust="spacing" textLength="57.5771" x="258.5" y="767.397">&#171;include&#187;</text><polygon fill="#181818" points="300.5,1042.7599,296.5,1051.7599,300.5,1047.7599,304.5,1051.7599,300.5,1042.7599" style="stroke:#181818;stroke-width:1.0;"/><path d="M300.5,1081.0966 C300.5,1070.1025 300.5,1061.5984 300.5,1048.7599 " fill="none" style="stroke:#181818;stroke-width:1.0;stroke-dasharray:7.0,7.0;"/><text fill="#000000" font-family="sans-serif" font-size="13" lengthAdjust="spacing" textLength="57.5771" x="258.5" y="1067.397">&#171;include&#187;</text><polygon fill="#181818" points="199.9251,500.4495,190.0767,500.3551,195.3368,502.4363,193.2556,507.6964,199.9251,500.4495" style="stroke:#181818;stroke-width:1.0;"/><path d="M225.2864,1385.8201 C198.9383,1379.3458 171.4706,1367.6207 153.5,1346.5 C68.8999,1247.0702 119.6934,1186.1902 110,1056 C101.3653,940.0297 82.593,626.6731 153.5,534.5 C165.3272,519.1257 176.5088,510.5892 194.4191,502.8337 " fill="none" style="stroke:#181818;stroke-width:1.0;stroke-dasharray:7.0,7.0;"/><text fill="#000000" font-family="sans-serif" font-size="13" lengthAdjust="spacing" textLength="57.5771" x="81" y="1050.897">&#171;include&#187;</text><polygon fill="#181818" points="189.8884,1042.6422,180.083,1043.5668,185.5302,1045.0929,184.0041,1050.54,189.8884,1042.6422" style="stroke:#181818;stroke-width:1.0;"/><path d="M225.3252,1399.7311 C184.6577,1398.6263 137.2974,1389.1948 110,1356 C103.7316,1348.3774 81.5176,1162.6615 153.5,1072.5 C163.303,1060.2213 170.7983,1053.3767 184.6585,1045.583 " fill="none" style="stroke:#181818;stroke-width:1.0;stroke-dasharray:7.0,7.0;"/><text fill="#000000" font-family="sans-serif" font-size="13" lengthAdjust="spacing" textLength="57.5771" x="81" y="1350.897">&#171;include&#187;</text><polygon fill="#181818" points="210.3661,1157.005,200.8359,1154.5201,205.4325,1157.8172,202.1354,1162.4138,210.3661,1157.005" style="stroke:#181818;stroke-width:1.0;"/><path d="M225.4649,1382.883 C200.0673,1376.067 173.1832,1364.8756 153.5,1346.5 C108.8105,1304.7792 82.2013,1270.4519 110,1216 C128.6466,1179.4751 164.6574,1164.5297 204.4458,1157.9797 " fill="none" style="stroke:#181818;stroke-width:1.0;stroke-dasharray:7.0,7.0;"/><text fill="#000000" font-family="sans-serif" font-size="13" lengthAdjust="spacing" textLength="57.5771" x="81" y="1231.897">&#171;include&#187;</text><polygon fill="#181818" points="219.9566,1214.8337,210.4038,1212.4374,215.0308,1215.6917,211.7765,1220.3187,219.9566,1214.8337" style="stroke:#181818;stroke-width:1.0;"/><path d="M225.2275,1389.4489 C183.7184,1382.8467 135.546,1367.0118 110,1330 C86.6937,1296.2331 125.4563,1258.681 153.5,1239.5 C172.9065,1226.2266 191.052,1219.8681 214.0456,1215.8633 " fill="none" style="stroke:#181818;stroke-width:1.0;stroke-dasharray:7.0,7.0;"/><text fill="#000000" font-family="sans-serif" font-size="13" lengthAdjust="spacing" textLength="57.5771" x="81" y="1324.897">&#171;include&#187;</text><polygon fill="#181818" points="300.5,1337.6839,296.5,1346.6839,300.5,1342.6839,304.5,1346.6839,300.5,1337.6839" style="stroke:#181818;stroke-width:1.0;"/><path d="M300.5,1375.963 C300.5,1364.4233 300.5,1355.3525 300.5,1343.6839 " fill="none" style="stroke:#181818;stroke-width:1.0;stroke-dasharray:7.0,7.0;"/><text fill="#000000" font-family="sans-serif" font-size="13" lengthAdjust="spacing" textLength="57.5771" x="258.5" y="1362.147">&#171;include&#187;</text><polygon fill="#181818" points="225.7896,1250.6162,217.1496,1245.8886,220.8066,1250.2044,216.4908,1253.8615,225.7896,1250.6162" style="stroke:#181818;stroke-width:1.0;"/><path d="M225.423,1378.2538 C155.6286,1360.8528 68.2537,1328.7571 110,1283 C138.4285,1251.8403 179.5547,1246.7958 219.81,1250.1221 " fill="none" style="stroke:#181818;stroke-width:1.0;stroke-dasharray:7.0,7.0;"/><text fill="#000000" font-family="sans-serif" font-size="13" lengthAdjust="spacing" textLength="57.5771" x="81" y="1298.897">&#171;include&#187;</text><polygon fill="#181818" points="300.5,175.5088,296.5,184.5088,300.5,180.5088,304.5,184.5088,300.5,175.5088" style="stroke:#181818;stroke-width:1.0;"/><path d="M300.5,231.5225 C300.5,214.1307 300.5,197.0298 300.5,181.5088 " fill="none" style="stroke:#181818;stroke-width:1.0;stroke-dasharray:7.0,7.0;"/><text fill="#000000" font-family="sans-serif" font-size="13" lengthAdjust="spacing" textLength="55.497" x="250.264" y="200.147">&#171;extend&#187;</text><text fill="#000000" font-family="sans-serif" font-size="13" lengthAdjust="spacing" textLength="129.0251" x="213.5" y="217.853">(hay filtros en la URL)</text><polygon fill="#181818" points="228.5624,175.6049,218.7392,174.8946,223.8588,177.3008,221.4526,182.4204,228.5624,175.6049" style="stroke:#181818;stroke-width:1.0;"/><path d="M200.161,431.2341 C167.0684,429.709 133.1124,420.8932 111,396 C93.591,376.4017 51.846,339.3459 153.5,222.5 C172.9571,200.1352 196.022,187.3372 222.918,177.64 " fill="none" style="stroke:#181818;stroke-width:1.0;stroke-dasharray:7.0,7.0;"/><text fill="#000000" font-family="sans-serif" font-size="13" lengthAdjust="spacing" textLength="55.497" x="82" y="390.897">&#171;extend&#187;</text><polygon fill="#181818" points="300.5,815.8288,296.5,824.8288,300.5,820.8288,304.5,824.8288,300.5,815.8288" style="stroke:#181818;stroke-width:1.0;"/><path d="M300.5,854.1334 C300.5,842.1738 300.5,833.2201 300.5,821.8288 " fill="none" style="stroke:#181818;stroke-width:1.0;stroke-dasharray:7.0,7.0;"/><text fill="#000000" font-family="sans-serif" font-size="13" lengthAdjust="spacing" textLength="55.497" x="259.5" y="840.397">&#171;extend&#187;</text><polygon fill="#181818" points="237.6795,798.6171,228.364,795.4198,232.6986,799.0546,229.0639,803.3892,237.6795,798.6171" style="stroke:#181818;stroke-width:1.0;"/><path d="M185.9717,924.1346 C131.2885,912.2738 83.1938,891.1181 111,854 C139.9804,815.3146 188.5468,802.932 231.7025,799.142 " fill="none" style="stroke:#181818;stroke-width:1.0;stroke-dasharray:7.0,7.0;"/><text fill="#000000" font-family="sans-serif" font-size="13" lengthAdjust="spacing" textLength="55.497" x="82" y="869.897">&#171;extend&#187;</text><polygon fill="#181818" points="300.5,582.1263,296.5,591.1263,300.5,587.1263,304.5,591.1263,300.5,582.1263" style="stroke:#181818;stroke-width:1.0;"/><path d="M300.5,638.2928 C300.5,621.0674 300.5,604.2179 300.5,588.1263 " fill="none" style="stroke:#181818;stroke-width:1.0;stroke-dasharray:7.0,7.0;"/><text fill="#000000" font-family="sans-serif" font-size="13" lengthAdjust="spacing" textLength="55.497" x="250.4821" y="606.647">&#171;extend&#187;</text><text fill="#000000" font-family="sans-serif" font-size="13" lengthAdjust="spacing" textLength="149.4612" x="203.5" y="624.353">(usuario no autenticado)</text><!--SRC=[bLVRRkCs47tNLqmD51jZumJjeY_1me1MSRB2Ucr3SV9G55ZG4YrpGuigAINh5ltt7b9NAqwH-adXd1dE7CujF-MQfNj6aXrKMP3Pyu9bp7j7ruAbca6IS8gPKSP-b4RHX5PQnHnVLgBsC03uMl0iSU18vOp2TJZvxTSFT3PdcZrnIU_fasIGlgSr4_9PPCaOMX7VIlwT4G1RMNvNf3cJreY6CznSFlFDHRxBpobWkWXKLcWb9TTqeALEkEvEBZnFycr11Ko8T5TG8ZIF2w4oppoAB8SNUyfP_CXIVbSS96w0c6Mfv3s0sR54mRUKjaoQleJ5XTAL8dj6x7lkUUwCHe54w0KV4JDKVpUY5JDCS-beoLcg_iZEZDYN88AD7Ru1U5xh3erEKpcYlpsFw1rD9XFGKJ2fKaLdURcH8bRdP4H63AHbXOXPZC375WcDqd2y7-m-WBYuLdIttmVV0d_jpvUtoo4kGHg0L-UuLac9U1gLwnbKvhE-nesGXMQQBcbJcXWVZOvfb6x2-JhoexvIn5DXd5g3fYSSM99YfHv5TxFvvWHct5Xx2E_MoxkE3hyVzp3iC1Enm2s66okzfFPYmnk3e21SzEdLMi2VCyt_B0NNt3AxUq6edsgUmZ9IDguq6dl-RJIxFGwtOly8zJ2B0Z-AmlKH_NvSb4oAlvZ58wg49QtPO7tlpyFVZotFfDYBhCzZmbzuD9k7NyF5m2LSarXc2XK_ec9ChZAnaIqh83duqbS8c8oHlT0eDuL2XhJ8-q_h9TAYH-6Enu-seroIGgc-U9L6tYRYvrdmPNc_FdcTkuiRMpxrnUWZuODFltpu6LyyUnAgJGxdoEpkEDLgGcqHDhYLVvps0NgFhftb90g-RxCtY6P-j8okPuk-mZKtCHfGGs1N7tV1Sh5-DTbxBY19XbuyC9UimqpnW_14EgbiA_I-odfKglEzzNcvk0cZhr1SBeQAErjEMbIjrcdnDjRFjhQYiF-M4S-LHZiUlk4jz6n8kf6lhc-wq5RBQ8rd-CVpd9M9ArIZ49xrbnkNfLMZhCLUtJxnz_IeEGtEcmuqEAwAU73OLEBWk5TwmqkRH1oSkuSQOliS3sGTZmD1oupNPO2JTSEW8op2tpLT8ejbYVSwozqqLkZxARFFg2egtG0TjrnsF15-5zEkRvBxNT77ZxN9wTJhcEhGhlpf5NH7O8EkMy19T4DgQxikqjEs7IFLxmsUl43_FzjTRRy5tHRtcsmth_isJweYFnNbwOJWFp3raZOVSdjisoHQBZf38fg_ZtAY7iIz-EiYQswjh4wdQBOxTg2j7UqmZwQ8FUO-cezFPjPhLhoZgTK4skNE2t0pfpfM_WFiAhvFOI-7Xy6KfcIe5SfKjoObQknvcK9jRbHHg3sfRTT8YEPePReicAbsODUHpock9zTvqpc1F7Gza1liSRHXM6PHb7kH998_ewvfP7U8qHNGHbXHpw4TGtNRBILHzPfoxgwlLcTfrsBiioB57aANMD-mwXr8bZnLWDaP9BAojqItU_c5PnF41bY7MUt6LPJrv1aiqbTNkTlkcLvXK9sDWU3VUGmMC8KJQziYtVy26OuqomoBRQRPm9xSGb7l4-XeCKQgJPjwg6QEdCGwFS8OnDUeGo77d2kX7Rmu1YZ1W2rnNy-YhkUe3NR53dj80OJWoSvDwlQU2jooXgvAH_Eoe-PV]--></g></svg>